<?xml version="1.0" encoding="utf-8"?>
<!-- Generator: Adobe Illustrator 26.0.1, SVG Export Plug-In . SVG Version: 6.00 Build 0)  -->
<svg version="1.1" id="Layer_1"  width="230" height="62" xmlns="http://www.w3.org/2000/svg" xmlns:xlink="http://www.w3.org/1999/xlink" x="0px" y="0px"
	 viewBox="0 0 2048 2048" style="enable-background:new 0 0 2048 2048;" xml:space="preserve">
<style type="text/css">
	.st0{fill:#B10007;}
	.st1{fill:#FFFFFF;}
	.st2{fill:#333333;}
</style>
<g>
	<circle class="st0" cx="1024" cy="1024" r="970"/>
	<g>
		<g>
			<g>
				<g>
					<path class="st1" d="M527.1,1320.02c-11.23-9.2-18.17-19.48-20.8-30.87c-2.63-11.38-3.95-24.23-3.95-38.53v-162.5H358.73v162.5
						c0,25.11-4.97,45.25-14.89,60.42c-9.93,15.2-31.53,22.77-64.8,22.77v12.71h303.02v-12.71h-3.51
						C555.49,1333.8,538.33,1329.21,527.1,1320.02z M279.04,701.49v11.81c27.14,0,47.21,6.64,60.21,19.93
						c12.98,13.29,19.48,34.81,19.48,64.59v162.05h143.62V797.82c0-25.1,4.89-45.32,14.68-60.66c9.77-15.33,31.45-22.98,65.02-22.98
						v-12.69H279.04z"/>
					<path class="st1" d="M1178.22,1088.12c-1.97,16.02-4.88,31.81-8.71,47.32c-7.9,31.82-20.36,61.01-37.44,87.59
						c-17.09,26.56-38.75,47.44-65.04,62.62c-17.81,9.92-36.78,16.56-56.92,19.91c-20.14,3.37-42.91,5.04-68.31,5.04
						c-28.32,0-49.49-3.13-63.5-9.42c-14.01-6.27-23.57-16.13-28.68-29.54c-5.12-13.43-7.67-31.53-7.67-54.3v-129.21H698.76v162.5
						c0,25.39-4.89,45.61-14.67,60.64c-9.79,15.04-31.61,22.55-65.47,22.55v12.71h369.59c54.88,0,104.23-8.1,148.02-24.31
						c43.79-16.19,80.27-38.75,109.48-67.66c29.19-28.9,51.01-62.02,65.46-99.4c8.28-21.39,14.19-43.73,17.7-67.03H1178.22z
						 M685.62,738.93c8.76,16.5,13.14,36.72,13.14,60.64v160.3h143.19V744.83c23.06-4.96,43.79-7.45,62.18-7.45
						c51.67,0,95.53,9.05,131.59,27.15c36.06,18.1,64.66,41.9,85.84,71.38c21.15,29.49,36.41,61.61,45.75,96.33
						c2.47,9.2,4.62,18.41,6.42,27.62h151.41c-3.77-17.72-8.94-35.03-15.5-51.91c-15.49-39.85-38.55-75.39-69.2-106.64
						c-30.65-31.23-68.83-55.68-114.51-73.35c-45.69-17.65-97.28-26.48-154.79-26.48H618.62v12.69h4.83
						C656.14,714.18,676.87,722.43,685.62,738.93z"/>
					<path class="st1" d="M1750.57,1093.85c-1.03-1.93-2.09-3.84-3.18-5.73h-223.25c40.1,25.77,68.01,44.24,83.69,55.43
						c17.8,12.69,31.15,25.55,40.05,38.53c8.91,13,13.37,28.24,13.37,45.77c0,25.98-10.59,48.01-31.76,66.12
						c-21.17,18.1-47.95,27.15-80.35,27.15c-22.19,0-44.82-5.18-67.88-15.55c-23.06-10.35-43.71-27.07-61.96-50.13
						c-18.25-23.06-30.15-51.82-35.69-86.27h-17.07l-3.95,182.17h15.33c6.13-14.3,16.06-21.46,29.78-21.46
						c5.54,0,11.89,0.72,19.05,2.18c7.16,1.48,13.06,2.78,17.73,3.95c41.74,11.97,78.54,17.96,110.36,17.96
						c30.94,0,59.62-4.46,86.05-13.37c26.41-8.89,49.19-21.45,68.31-37.65c19.11-16.21,33.86-35.32,44.23-57.37
						c10.35-22.03,15.53-46.49,15.53-73.35C1768.96,1143.03,1762.83,1116.91,1750.57,1093.85z M1384.35,959.87h215.24
						c-9.18-6.26-24.68-16.19-46.51-29.8c-26.29-16.93-45.85-32.4-58.69-46.43c-12.85-14.01-20.96-25.84-24.31-35.46
						c-3.35-9.63-5.02-19.42-5.02-29.34c0-17.22,4.3-32.48,12.92-45.77c8.6-13.27,20.28-23.49,35.03-30.65
						c14.73-7.16,31-10.74,48.82-10.74c36.2,0,67,11.62,92.4,34.82c25.4,23.2,43.94,54.95,55.62,95.24h17.07V694.04h-13.58
						c-3.5,6.13-7.22,10.8-11.17,14.01c-3.93,3.21-10.88,4.81-20.8,4.81c-6.42,0-16.06-1.15-28.9-3.5
						c-4.97-1.17-11.1-2.7-18.39-4.61c-7.3-1.89-13.14-3.13-17.52-3.72c-16.35-3.5-33.43-5.25-51.22-5.25
						c-38.26,0-72.26,9.71-102.05,29.11c-29.77,19.43-52.76,44.45-68.96,75.1c-16.21,30.65-24.31,61.75-24.31,93.28
						c0,16.35,2.12,31.74,6.35,46.2C1378.37,946.27,1381.03,953.08,1384.35,959.87z"/>
				</g>
			</g>
			<g>
				<rect x="577.43" y="989.61" class="st1" width="7.27" height="68.78"/>
				<polygon class="st1" points="657.4,1045.39 613.09,989.61 607.1,989.61 607.1,1058.38 614.37,1058.38 614.37,1002.61 
					658.58,1058.38 664.57,1058.38 664.57,989.61 657.4,989.61 				"/>
				<rect x="707.4" y="1028.71" class="st1" width="25.74" height="6.09"/>
				<path class="st1" d="M823.28,993.98c-5.54-2.91-11.97-4.37-19.3-4.37h-28v68.77h28c7.34,0,13.77-1.46,19.3-4.37
					c5.53-2.91,9.84-6.96,12.92-12.13c3.08-5.17,4.62-11.14,4.62-17.89c0-6.74-1.54-12.7-4.62-17.88
					C833.12,1000.95,828.82,996.9,823.28,993.98z M829.92,1038.59c-2.49,4.22-5.98,7.53-10.46,9.92c-4.49,2.39-9.78,3.59-15.87,3.59
					h-20.34v-56.2h20.34c6.09,0,11.38,1.19,15.87,3.58c4.49,2.39,7.97,5.68,10.46,9.87c2.49,4.2,3.73,9.07,3.73,14.64
					C833.65,1029.5,832.4,1034.37,829.92,1038.59z"/>
				<polygon class="st1" points="864.4,1026.55 899.96,1026.55 899.96,1020.37 864.4,1020.37 864.4,995.9 904.28,995.9 
					904.28,989.61 857.13,989.61 857.13,1058.38 905.76,1058.38 905.76,1052.1 864.4,1052.1 				"/>
				<path class="st1" d="M963.63,992.41c-4.19-1.87-9.2-2.81-15.03-2.81h-25.74v68.77h7.27v-21.71h18.47
					c5.83,0,10.84-0.94,15.03-2.85c4.19-1.9,7.42-4.6,9.67-8.11c2.26-3.5,3.39-7.68,3.39-12.52c0-4.98-1.13-9.22-3.39-12.73
					C971.04,996.96,967.81,994.28,963.63,992.41z M964.07,1025.82c-3.57,2.97-8.79,4.47-15.67,4.47h-18.27V995.9h18.27
					c6.88,0,12.1,1.5,15.67,4.52c3.57,3.01,5.36,7.27,5.36,12.78C969.42,1018.63,967.64,1022.84,964.07,1025.82z"/>
				<polygon class="st1" points="979.34,995.9 1003.51,995.9 1003.51,1058.38 1010.79,1058.38 1010.79,995.9 1034.95,995.9 
					1034.95,989.61 979.34,989.61 				"/>
				<polygon class="st1" points="1096.85,1020.26 1053.81,1020.26 1053.81,989.61 1046.54,989.61 1046.54,1058.38 1053.81,1058.38 
					1053.81,1026.65 1096.85,1026.65 1096.85,1058.38 1104.02,1058.38 1104.02,989.61 1096.85,989.61 				"/>
				<path class="st1" d="M1188.36,1026.11c-2.52-1.34-5.27-2.44-8.25-3.29c-2.98-0.86-5.98-1.64-8.99-2.36
					c-3.01-0.72-5.78-1.54-8.3-2.45c-2.52-0.92-4.55-2.2-6.09-3.84c-1.54-1.63-2.31-3.8-2.31-6.48c0-2.36,0.64-4.47,1.91-6.33
					c1.28-1.87,3.26-3.36,5.94-4.47c2.69-1.11,6.09-1.67,10.22-1.67c3.08,0,6.27,0.46,9.58,1.38c3.31,0.92,6.44,2.36,9.38,4.33
					l2.45-5.8c-2.75-1.9-6.02-3.39-9.82-4.48c-3.8-1.08-7.63-1.61-11.5-1.61c-5.83,0-10.61,0.86-14.34,2.6
					c-3.73,1.73-6.5,4.03-8.3,6.88c-1.8,2.85-2.7,5.98-2.7,9.39c0,3.67,0.77,6.63,2.31,8.89c1.54,2.26,3.57,4.08,6.09,5.45
					c2.52,1.38,5.29,2.47,8.3,3.29c3.01,0.82,6.02,1.58,9.04,2.3c3.01,0.73,5.76,1.56,8.25,2.51c2.49,0.95,4.5,2.24,6.04,3.88
					c1.54,1.64,2.31,3.8,2.31,6.48c0,2.23-0.64,4.26-1.91,6.09c-1.28,1.83-3.28,3.29-5.99,4.37c-2.72,1.08-6.24,1.62-10.56,1.62
					c-4.52,0-8.83-0.81-12.92-2.41c-4.09-1.61-7.35-3.59-9.77-5.95l-2.85,5.6c2.55,2.61,6.17,4.76,10.86,6.43
					c4.68,1.67,9.58,2.51,14.69,2.51c5.89,0,10.72-0.87,14.49-2.61c3.77-1.73,6.56-4.03,8.4-6.88c1.83-2.85,2.75-5.94,2.75-9.28
					c0-3.61-0.77-6.52-2.31-8.75C1192.91,1029.24,1190.88,1027.45,1188.36,1026.11z"/>
				<polygon class="st1" points="1200.79,995.9 1224.96,995.9 1224.96,1058.38 1232.23,1058.38 1232.23,995.9 1256.39,995.9 
					1256.39,989.61 1200.79,989.61 				"/>
				<path class="st1" d="M1322.86,998.95c-3.24-3.14-7.06-5.59-11.45-7.32c-4.39-1.73-9.17-2.6-14.34-2.6
					c-5.24,0-10.05,0.86-14.44,2.6c-4.39,1.73-8.2,4.2-11.45,7.37c-3.24,3.17-5.76,6.88-7.56,11.1c-1.8,4.23-2.7,8.86-2.7,13.9
					c0,5.04,0.9,9.68,2.7,13.9c1.8,4.22,4.32,7.92,7.56,11.1c3.24,3.18,7.08,5.64,11.5,7.37c4.42,1.73,9.21,2.61,14.39,2.61
					c5.17,0,9.95-0.87,14.34-2.61c4.39-1.73,8.2-4.17,11.45-7.32c3.24-3.15,5.76-6.84,7.56-11.11c1.8-4.25,2.7-8.91,2.7-13.95
					c0-5.05-0.9-9.69-2.7-13.95C1328.62,1005.79,1326.1,1002.09,1322.86,998.95z M1323.69,1035.34c-1.44,3.45-3.45,6.45-6.04,9.04
					c-2.59,2.59-5.64,4.58-9.14,6c-3.51,1.41-7.32,2.11-11.45,2.11c-4.13,0-7.96-0.7-11.49-2.11c-3.54-1.42-6.6-3.41-9.19-6
					c-2.59-2.59-4.62-5.61-6.09-9.09c-1.48-3.47-2.21-7.24-2.21-11.3c0-4.13,0.74-7.91,2.21-11.35c1.48-3.44,3.5-6.45,6.09-9.04
					c2.59-2.58,5.65-4.58,9.19-5.99c3.53-1.41,7.37-2.11,11.49-2.11c4.13,0,7.94,0.7,11.45,2.11c3.5,1.41,6.55,3.41,9.14,5.99
					c2.59,2.59,4.6,5.6,6.04,9.04c1.44,3.44,2.16,7.22,2.16,11.35S1325.13,1031.9,1323.69,1035.34z"/>
				<path class="st1" d="M1390.21,1033.77c4.19-1.87,7.42-4.55,9.67-8.06c2.26-3.5,3.39-7.68,3.39-12.52
					c0-4.98-1.13-9.22-3.39-12.73c-2.26-3.5-5.48-6.19-9.67-8.05c-4.19-1.87-9.2-2.81-15.03-2.81h-25.74v68.77h7.27v-21.81h18.47
					c1.94,0,3.75-0.14,5.51-0.35l15.71,22.16h7.96l-16.83-23.61C1388.44,1034.47,1389.35,1034.15,1390.21,1033.77z M1374.98,1030.38
					h-18.27V995.9h18.27c6.88,0,12.1,1.5,15.67,4.52c3.57,3.01,5.36,7.27,5.36,12.78c0,5.44-1.79,9.66-5.36,12.67
					C1387.08,1028.88,1381.86,1030.38,1374.98,1030.38z"/>
				<polygon class="st1" points="1470.57,989.61 1463.3,989.61 1439.72,1028.19 1416.14,989.61 1408.38,989.61 1435.89,1034.62 
					1435.89,1058.38 1443.06,1058.38 1443.06,1034.62 				"/>
			</g>
		</g>
	</g>
</g>
</svg>
